<mxfile host="app.diagrams.net" modified="2023-09-30T07:16:41.902Z" agent="Mozilla/5.0 (Windows NT 10.0; Win64; x64) AppleWebKit/537.36 (KHTML, like Gecko) Chrome/117.0.0.0 Safari/537.36" etag="xDv1hf3Tx4m_QX93nxhg" version="22.0.0" type="github">
  <diagram name="Page-1" id="oYd3Mc3LVP-6J4C2aAIg">
    <mxGraphModel dx="1958" dy="1992" grid="1" gridSize="10" guides="1" tooltips="1" connect="1" arrows="0" fold="1" page="1" pageScale="1" pageWidth="850" pageHeight="1100" math="0" shadow="0">
      <root>
        <mxCell id="0" />
        <mxCell id="1" parent="0" />
        <mxCell id="V1TDWvUSBA27oYakJqR9-27" value="" style="rounded=0;whiteSpace=wrap;html=1;" vertex="1" parent="1">
          <mxGeometry x="40" y="580" width="610" height="280" as="geometry" />
        </mxCell>
        <mxCell id="40IYaSdumrcxGA5eztbm-112" value="" style="rounded=0;whiteSpace=wrap;html=1;fontFamily=Helvetica;fontSize=11;fontColor=default;" parent="1" vertex="1">
          <mxGeometry x="1020" y="-317.5" width="500" height="200" as="geometry" />
        </mxCell>
        <mxCell id="40IYaSdumrcxGA5eztbm-90" value="" style="rounded=0;whiteSpace=wrap;html=1;fontFamily=Helvetica;fontSize=11;fontColor=default;" parent="1" vertex="1">
          <mxGeometry x="130" y="-347.5" width="310" height="257.5" as="geometry" />
        </mxCell>
        <mxCell id="40IYaSdumrcxGA5eztbm-80" value="" style="rounded=0;whiteSpace=wrap;html=1;fontFamily=Helvetica;fontSize=11;fontColor=default;" parent="1" vertex="1">
          <mxGeometry x="620" y="-460" width="370" height="480" as="geometry" />
        </mxCell>
        <mxCell id="40IYaSdumrcxGA5eztbm-2" value="&lt;b&gt;BMS PCB&lt;/b&gt;" style="rounded=0;whiteSpace=wrap;html=1;" parent="1" vertex="1">
          <mxGeometry x="250" y="-310" width="150" height="60" as="geometry" />
        </mxCell>
        <mxCell id="40IYaSdumrcxGA5eztbm-4" value="" style="pointerEvents=1;verticalLabelPosition=bottom;shadow=0;dashed=0;align=center;html=1;verticalAlign=top;shape=mxgraph.electrical.miscellaneous.batteryStack;" parent="1" vertex="1">
          <mxGeometry x="170" y="-290" width="50" height="40" as="geometry" />
        </mxCell>
        <mxCell id="40IYaSdumrcxGA5eztbm-5" value="&lt;b&gt;BMS PCB&lt;/b&gt;" style="rounded=0;whiteSpace=wrap;html=1;" parent="1" vertex="1">
          <mxGeometry x="250" y="-210" width="150" height="60" as="geometry" />
        </mxCell>
        <mxCell id="40IYaSdumrcxGA5eztbm-17" value="" style="endArrow=none;html=1;rounded=0;exitX=1;exitY=0.5;exitDx=0;exitDy=0;entryX=-0.001;entryY=0.671;entryDx=0;entryDy=0;entryPerimeter=0;" parent="1" source="40IYaSdumrcxGA5eztbm-4" target="40IYaSdumrcxGA5eztbm-2" edge="1">
          <mxGeometry width="50" height="50" relative="1" as="geometry">
            <mxPoint x="260" y="-230" as="sourcePoint" />
            <mxPoint x="310" y="-280" as="targetPoint" />
          </mxGeometry>
        </mxCell>
        <mxCell id="40IYaSdumrcxGA5eztbm-21" style="shape=connector;rounded=0;orthogonalLoop=1;jettySize=auto;html=1;entryX=1;entryY=0.5;entryDx=0;entryDy=0;labelBackgroundColor=default;strokeColor=default;fontFamily=Helvetica;fontSize=11;fontColor=default;endArrow=classic;" parent="1" source="40IYaSdumrcxGA5eztbm-4" target="40IYaSdumrcxGA5eztbm-4" edge="1">
          <mxGeometry relative="1" as="geometry" />
        </mxCell>
        <mxCell id="40IYaSdumrcxGA5eztbm-35" value="" style="endArrow=none;html=1;rounded=0;labelBackgroundColor=default;strokeColor=default;fontFamily=Helvetica;fontSize=11;fontColor=default;shape=connector;entryX=0;entryY=0.5;entryDx=0;entryDy=0;" parent="1" target="40IYaSdumrcxGA5eztbm-4" edge="1">
          <mxGeometry width="50" height="50" relative="1" as="geometry">
            <mxPoint x="150" y="-270" as="sourcePoint" />
            <mxPoint x="190" y="-320" as="targetPoint" />
          </mxGeometry>
        </mxCell>
        <mxCell id="40IYaSdumrcxGA5eztbm-39" value="" style="pointerEvents=1;verticalLabelPosition=bottom;shadow=0;dashed=0;align=center;html=1;verticalAlign=top;shape=mxgraph.electrical.miscellaneous.batteryStack;" parent="1" vertex="1">
          <mxGeometry x="170" y="-200" width="50" height="40" as="geometry" />
        </mxCell>
        <mxCell id="40IYaSdumrcxGA5eztbm-40" value="" style="endArrow=none;html=1;rounded=0;exitX=1;exitY=0.5;exitDx=0;exitDy=0;entryX=-0.001;entryY=0.671;entryDx=0;entryDy=0;entryPerimeter=0;" parent="1" source="40IYaSdumrcxGA5eztbm-39" edge="1">
          <mxGeometry width="50" height="50" relative="1" as="geometry">
            <mxPoint x="260" y="-140" as="sourcePoint" />
            <mxPoint x="250" y="-180" as="targetPoint" />
          </mxGeometry>
        </mxCell>
        <mxCell id="40IYaSdumrcxGA5eztbm-41" style="shape=connector;rounded=0;orthogonalLoop=1;jettySize=auto;html=1;entryX=1;entryY=0.5;entryDx=0;entryDy=0;labelBackgroundColor=default;strokeColor=default;fontFamily=Helvetica;fontSize=11;fontColor=default;endArrow=classic;" parent="1" source="40IYaSdumrcxGA5eztbm-39" target="40IYaSdumrcxGA5eztbm-39" edge="1">
          <mxGeometry relative="1" as="geometry" />
        </mxCell>
        <mxCell id="40IYaSdumrcxGA5eztbm-42" value="" style="pointerEvents=1;verticalLabelPosition=bottom;shadow=0;dashed=0;align=center;html=1;verticalAlign=top;shape=mxgraph.electrical.signal_sources.signal_ground;fontFamily=Helvetica;fontSize=11;fontColor=default;" parent="1" vertex="1">
          <mxGeometry x="140" y="-70" width="20" height="20" as="geometry" />
        </mxCell>
        <mxCell id="40IYaSdumrcxGA5eztbm-43" value="" style="endArrow=none;html=1;rounded=0;labelBackgroundColor=default;strokeColor=default;fontFamily=Helvetica;fontSize=11;fontColor=default;shape=connector;entryX=0;entryY=0.5;entryDx=0;entryDy=0;" parent="1" target="40IYaSdumrcxGA5eztbm-39" edge="1">
          <mxGeometry width="50" height="50" relative="1" as="geometry">
            <mxPoint x="150" y="-180" as="sourcePoint" />
            <mxPoint x="190" y="-230" as="targetPoint" />
          </mxGeometry>
        </mxCell>
        <mxCell id="40IYaSdumrcxGA5eztbm-44" value="" style="endArrow=none;html=1;rounded=0;labelBackgroundColor=default;strokeColor=default;fontFamily=Helvetica;fontSize=11;fontColor=default;shape=connector;exitX=0.5;exitY=0;exitDx=0;exitDy=0;exitPerimeter=0;" parent="1" source="40IYaSdumrcxGA5eztbm-42" edge="1">
          <mxGeometry width="50" height="50" relative="1" as="geometry">
            <mxPoint x="150" y="-110" as="sourcePoint" />
            <mxPoint x="150" y="-220" as="targetPoint" />
          </mxGeometry>
        </mxCell>
        <mxCell id="40IYaSdumrcxGA5eztbm-47" value="&lt;b&gt;Electrical Steering PCB&lt;br&gt;(Unified Steering Board!)&lt;/b&gt;" style="whiteSpace=wrap;html=1;aspect=fixed;fontFamily=Helvetica;fontSize=11;fontColor=default;" parent="1" vertex="1">
          <mxGeometry x="450" y="-290" width="130" height="130" as="geometry" />
        </mxCell>
        <mxCell id="40IYaSdumrcxGA5eztbm-48" value="" style="endArrow=none;html=1;rounded=0;labelBackgroundColor=default;strokeColor=default;fontFamily=Helvetica;fontSize=11;fontColor=default;shape=connector;" parent="1" edge="1">
          <mxGeometry width="50" height="50" relative="1" as="geometry">
            <mxPoint x="400" y="-270" as="sourcePoint" />
            <mxPoint x="420" y="-270" as="targetPoint" />
            <Array as="points" />
          </mxGeometry>
        </mxCell>
        <mxCell id="40IYaSdumrcxGA5eztbm-49" value="" style="endArrow=none;html=1;rounded=0;labelBackgroundColor=default;strokeColor=default;fontFamily=Helvetica;fontSize=11;fontColor=default;shape=connector;" parent="1" edge="1">
          <mxGeometry width="50" height="50" relative="1" as="geometry">
            <mxPoint x="400" y="-190" as="sourcePoint" />
            <mxPoint x="420" y="-190" as="targetPoint" />
          </mxGeometry>
        </mxCell>
        <mxCell id="40IYaSdumrcxGA5eztbm-50" value="" style="endArrow=none;html=1;rounded=0;labelBackgroundColor=default;strokeColor=default;fontFamily=Helvetica;fontSize=11;fontColor=default;shape=connector;" parent="1" edge="1">
          <mxGeometry width="50" height="50" relative="1" as="geometry">
            <mxPoint x="420" y="-190" as="sourcePoint" />
            <mxPoint x="420" y="-270" as="targetPoint" />
          </mxGeometry>
        </mxCell>
        <mxCell id="40IYaSdumrcxGA5eztbm-51" value="" style="endArrow=none;html=1;rounded=0;labelBackgroundColor=default;strokeColor=default;fontFamily=Helvetica;fontSize=11;fontColor=default;shape=connector;entryX=-0.001;entryY=0.462;entryDx=0;entryDy=0;entryPerimeter=0;" parent="1" target="40IYaSdumrcxGA5eztbm-47" edge="1">
          <mxGeometry width="50" height="50" relative="1" as="geometry">
            <mxPoint x="420" y="-230" as="sourcePoint" />
            <mxPoint x="449.99999999999994" y="-225.51" as="targetPoint" />
          </mxGeometry>
        </mxCell>
        <mxCell id="40IYaSdumrcxGA5eztbm-52" value="Servo Motor" style="ellipse;whiteSpace=wrap;html=1;aspect=fixed;fontFamily=Helvetica;fontSize=11;fontColor=default;" parent="1" vertex="1">
          <mxGeometry x="710" y="-450" width="80" height="80" as="geometry" />
        </mxCell>
        <mxCell id="40IYaSdumrcxGA5eztbm-53" value="Servo Motor" style="ellipse;whiteSpace=wrap;html=1;aspect=fixed;fontFamily=Helvetica;fontSize=11;fontColor=default;" parent="1" vertex="1">
          <mxGeometry x="710" y="-330" width="80" height="80" as="geometry" />
        </mxCell>
        <mxCell id="40IYaSdumrcxGA5eztbm-54" value="Servo Motor" style="ellipse;whiteSpace=wrap;html=1;aspect=fixed;fontFamily=Helvetica;fontSize=11;fontColor=default;" parent="1" vertex="1">
          <mxGeometry x="710" y="-210" width="80" height="80" as="geometry" />
        </mxCell>
        <mxCell id="40IYaSdumrcxGA5eztbm-55" value="Servo Motor" style="ellipse;whiteSpace=wrap;html=1;aspect=fixed;fontFamily=Helvetica;fontSize=11;fontColor=default;" parent="1" vertex="1">
          <mxGeometry x="710" y="-90" width="80" height="80" as="geometry" />
        </mxCell>
        <mxCell id="40IYaSdumrcxGA5eztbm-60" value="" style="endArrow=none;html=1;rounded=0;labelBackgroundColor=default;strokeColor=default;fontFamily=Helvetica;fontSize=11;fontColor=default;shape=connector;" parent="1" edge="1">
          <mxGeometry width="50" height="50" relative="1" as="geometry">
            <mxPoint x="580" y="-230" as="sourcePoint" />
            <mxPoint x="640" y="-230" as="targetPoint" />
          </mxGeometry>
        </mxCell>
        <mxCell id="40IYaSdumrcxGA5eztbm-61" value="" style="endArrow=none;html=1;rounded=0;labelBackgroundColor=default;strokeColor=default;fontFamily=Helvetica;fontSize=11;fontColor=default;shape=connector;" parent="1" edge="1">
          <mxGeometry width="50" height="50" relative="1" as="geometry">
            <mxPoint x="640" y="-230" as="sourcePoint" />
            <mxPoint x="640" y="-410" as="targetPoint" />
          </mxGeometry>
        </mxCell>
        <mxCell id="40IYaSdumrcxGA5eztbm-62" value="" style="endArrow=none;html=1;rounded=0;labelBackgroundColor=default;strokeColor=default;fontFamily=Helvetica;fontSize=11;fontColor=default;shape=connector;" parent="1" edge="1">
          <mxGeometry width="50" height="50" relative="1" as="geometry">
            <mxPoint x="640" y="-50" as="sourcePoint" />
            <mxPoint x="640" y="-230" as="targetPoint" />
          </mxGeometry>
        </mxCell>
        <mxCell id="40IYaSdumrcxGA5eztbm-63" value="" style="endArrow=none;html=1;rounded=0;labelBackgroundColor=default;strokeColor=default;fontFamily=Helvetica;fontSize=11;fontColor=default;shape=connector;" parent="1" target="40IYaSdumrcxGA5eztbm-55" edge="1">
          <mxGeometry width="50" height="50" relative="1" as="geometry">
            <mxPoint x="640" y="-50" as="sourcePoint" />
            <mxPoint x="690" y="-100" as="targetPoint" />
          </mxGeometry>
        </mxCell>
        <mxCell id="40IYaSdumrcxGA5eztbm-71" value="&lt;font style=&quot;font-size: 9px;&quot;&gt;PWM Signal&lt;/font&gt;" style="edgeLabel;html=1;align=center;verticalAlign=middle;resizable=0;points=[];fontSize=11;fontFamily=Helvetica;fontColor=default;" parent="40IYaSdumrcxGA5eztbm-63" vertex="1" connectable="0">
          <mxGeometry x="-0.0055" relative="1" as="geometry">
            <mxPoint as="offset" />
          </mxGeometry>
        </mxCell>
        <mxCell id="40IYaSdumrcxGA5eztbm-64" value="" style="endArrow=none;html=1;rounded=0;labelBackgroundColor=default;strokeColor=default;fontFamily=Helvetica;fontSize=11;fontColor=default;shape=connector;" parent="1" edge="1">
          <mxGeometry width="50" height="50" relative="1" as="geometry">
            <mxPoint x="640" y="-170.12" as="sourcePoint" />
            <mxPoint x="710" y="-170.12" as="targetPoint" />
          </mxGeometry>
        </mxCell>
        <mxCell id="40IYaSdumrcxGA5eztbm-67" value="&lt;font style=&quot;font-size: 9px;&quot;&gt;PWM Signal&lt;/font&gt;" style="edgeLabel;html=1;align=center;verticalAlign=middle;resizable=0;points=[];fontSize=11;fontFamily=Helvetica;fontColor=default;" parent="40IYaSdumrcxGA5eztbm-64" vertex="1" connectable="0">
          <mxGeometry x="-0.1374" y="1" relative="1" as="geometry">
            <mxPoint x="10" y="1" as="offset" />
          </mxGeometry>
        </mxCell>
        <mxCell id="40IYaSdumrcxGA5eztbm-65" value="" style="endArrow=none;html=1;rounded=0;labelBackgroundColor=default;strokeColor=default;fontFamily=Helvetica;fontSize=11;fontColor=default;shape=connector;" parent="1" edge="1">
          <mxGeometry width="50" height="50" relative="1" as="geometry">
            <mxPoint x="640" y="-290" as="sourcePoint" />
            <mxPoint x="710" y="-290" as="targetPoint" />
          </mxGeometry>
        </mxCell>
        <mxCell id="40IYaSdumrcxGA5eztbm-69" value="&lt;font style=&quot;font-size: 9px;&quot;&gt;PWM Signal&lt;/font&gt;" style="edgeLabel;html=1;align=center;verticalAlign=middle;resizable=0;points=[];fontSize=11;fontFamily=Helvetica;fontColor=default;" parent="40IYaSdumrcxGA5eztbm-65" vertex="1" connectable="0">
          <mxGeometry x="0.024" relative="1" as="geometry">
            <mxPoint as="offset" />
          </mxGeometry>
        </mxCell>
        <mxCell id="40IYaSdumrcxGA5eztbm-66" value="" style="endArrow=none;html=1;rounded=0;labelBackgroundColor=default;strokeColor=default;fontFamily=Helvetica;fontSize=11;fontColor=default;shape=connector;" parent="1" edge="1">
          <mxGeometry width="50" height="50" relative="1" as="geometry">
            <mxPoint x="640" y="-410.12" as="sourcePoint" />
            <mxPoint x="710" y="-410.12" as="targetPoint" />
          </mxGeometry>
        </mxCell>
        <mxCell id="40IYaSdumrcxGA5eztbm-70" value="&lt;font style=&quot;font-size: 9px;&quot;&gt;PWM Signal&lt;/font&gt;" style="edgeLabel;html=1;align=center;verticalAlign=middle;resizable=0;points=[];fontSize=11;fontFamily=Helvetica;fontColor=default;" parent="40IYaSdumrcxGA5eztbm-66" vertex="1" connectable="0">
          <mxGeometry x="-0.2486" y="1" relative="1" as="geometry">
            <mxPoint x="14" y="1" as="offset" />
          </mxGeometry>
        </mxCell>
        <mxCell id="40IYaSdumrcxGA5eztbm-72" value="" style="endArrow=none;html=1;rounded=0;labelBackgroundColor=default;strokeColor=default;fontFamily=Helvetica;fontSize=11;fontColor=default;shape=connector;" parent="1" edge="1">
          <mxGeometry width="50" height="50" relative="1" as="geometry">
            <mxPoint x="790" y="-410" as="sourcePoint" />
            <mxPoint x="880" y="-410" as="targetPoint" />
          </mxGeometry>
        </mxCell>
        <mxCell id="40IYaSdumrcxGA5eztbm-73" value="" style="endArrow=none;html=1;rounded=0;labelBackgroundColor=default;strokeColor=default;fontFamily=Helvetica;fontSize=11;fontColor=default;shape=connector;" parent="1" edge="1">
          <mxGeometry width="50" height="50" relative="1" as="geometry">
            <mxPoint x="790" y="-290.42" as="sourcePoint" />
            <mxPoint x="880" y="-290.42" as="targetPoint" />
          </mxGeometry>
        </mxCell>
        <mxCell id="40IYaSdumrcxGA5eztbm-74" value="" style="endArrow=none;html=1;rounded=0;labelBackgroundColor=default;strokeColor=default;fontFamily=Helvetica;fontSize=11;fontColor=default;shape=connector;" parent="1" edge="1">
          <mxGeometry width="50" height="50" relative="1" as="geometry">
            <mxPoint x="790" y="-170.21000000000004" as="sourcePoint" />
            <mxPoint x="880" y="-170.21000000000004" as="targetPoint" />
          </mxGeometry>
        </mxCell>
        <mxCell id="40IYaSdumrcxGA5eztbm-75" value="" style="endArrow=none;html=1;rounded=0;labelBackgroundColor=default;strokeColor=default;fontFamily=Helvetica;fontSize=11;fontColor=default;shape=connector;" parent="1" edge="1">
          <mxGeometry width="50" height="50" relative="1" as="geometry">
            <mxPoint x="790" y="-50.20999999999998" as="sourcePoint" />
            <mxPoint x="880" y="-50.20999999999998" as="targetPoint" />
          </mxGeometry>
        </mxCell>
        <mxCell id="40IYaSdumrcxGA5eztbm-76" value="" style="endArrow=none;html=1;rounded=0;labelBackgroundColor=default;strokeColor=default;fontFamily=Helvetica;fontSize=11;fontColor=default;shape=connector;exitX=0.5;exitY=0;exitDx=0;exitDy=0;exitPerimeter=0;" parent="1" source="40IYaSdumrcxGA5eztbm-78" edge="1">
          <mxGeometry width="50" height="50" relative="1" as="geometry">
            <mxPoint x="880" y="-20" as="sourcePoint" />
            <mxPoint x="880" y="-410" as="targetPoint" />
          </mxGeometry>
        </mxCell>
        <mxCell id="40IYaSdumrcxGA5eztbm-78" value="" style="pointerEvents=1;verticalLabelPosition=bottom;shadow=0;dashed=0;align=center;html=1;verticalAlign=top;shape=mxgraph.electrical.signal_sources.signal_ground;fontFamily=Helvetica;fontSize=11;fontColor=default;" parent="1" vertex="1">
          <mxGeometry x="870" y="30" width="20" height="20" as="geometry" />
        </mxCell>
        <mxCell id="40IYaSdumrcxGA5eztbm-82" value="" style="endArrow=none;html=1;rounded=0;labelBackgroundColor=default;strokeColor=default;fontFamily=Helvetica;fontSize=11;fontColor=default;shape=connector;" parent="1" edge="1">
          <mxGeometry width="50" height="50" relative="1" as="geometry">
            <mxPoint x="520" y="-290" as="sourcePoint" />
            <mxPoint x="520" y="-470" as="targetPoint" />
          </mxGeometry>
        </mxCell>
        <mxCell id="40IYaSdumrcxGA5eztbm-83" value="" style="endArrow=none;html=1;rounded=0;labelBackgroundColor=default;strokeColor=default;fontFamily=Helvetica;fontSize=11;fontColor=default;shape=connector;" parent="1" edge="1">
          <mxGeometry width="50" height="50" relative="1" as="geometry">
            <mxPoint x="520" y="-470" as="sourcePoint" />
            <mxPoint x="750" y="-470" as="targetPoint" />
          </mxGeometry>
        </mxCell>
        <mxCell id="40IYaSdumrcxGA5eztbm-84" value="" style="endArrow=none;html=1;rounded=0;labelBackgroundColor=default;strokeColor=default;fontFamily=Helvetica;fontSize=11;fontColor=default;shape=connector;exitX=0.352;exitY=0;exitDx=0;exitDy=0;exitPerimeter=0;" parent="1" source="40IYaSdumrcxGA5eztbm-80" edge="1">
          <mxGeometry width="50" height="50" relative="1" as="geometry">
            <mxPoint x="749.75" y="-460" as="sourcePoint" />
            <mxPoint x="750.25" y="-470.48" as="targetPoint" />
          </mxGeometry>
        </mxCell>
        <mxCell id="40IYaSdumrcxGA5eztbm-85" value="7.4 V" style="text;html=1;align=center;verticalAlign=middle;resizable=0;points=[];autosize=1;strokeColor=none;fillColor=none;fontSize=11;fontFamily=Helvetica;fontColor=default;" parent="1" vertex="1">
          <mxGeometry x="605" y="-490" width="50" height="30" as="geometry" />
        </mxCell>
        <mxCell id="40IYaSdumrcxGA5eztbm-86" value="11.4 V Battery" style="text;html=1;align=center;verticalAlign=middle;resizable=0;points=[];autosize=1;strokeColor=none;fillColor=none;fontSize=11;fontFamily=Helvetica;fontColor=default;" parent="1" vertex="1">
          <mxGeometry x="150" y="-310" width="90" height="30" as="geometry" />
        </mxCell>
        <mxCell id="40IYaSdumrcxGA5eztbm-87" value="11.4 V Battery" style="text;html=1;align=center;verticalAlign=middle;resizable=0;points=[];autosize=1;strokeColor=none;fillColor=none;fontSize=11;fontFamily=Helvetica;fontColor=default;" parent="1" vertex="1">
          <mxGeometry x="150" y="-220" width="90" height="30" as="geometry" />
        </mxCell>
        <mxCell id="40IYaSdumrcxGA5eztbm-88" value="Steering" style="text;html=1;align=center;verticalAlign=middle;resizable=0;points=[];autosize=1;strokeColor=none;fillColor=none;fontSize=11;fontFamily=Helvetica;fontColor=default;fontStyle=1" parent="1" vertex="1">
          <mxGeometry x="925" y="-460" width="70" height="30" as="geometry" />
        </mxCell>
        <mxCell id="40IYaSdumrcxGA5eztbm-89" value="" style="endArrow=none;html=1;rounded=0;labelBackgroundColor=default;strokeColor=default;fontFamily=Helvetica;fontSize=11;fontColor=default;shape=connector;" parent="1" edge="1">
          <mxGeometry width="50" height="50" relative="1" as="geometry">
            <mxPoint x="150" y="-180" as="sourcePoint" />
            <mxPoint x="150" y="-270" as="targetPoint" />
          </mxGeometry>
        </mxCell>
        <mxCell id="40IYaSdumrcxGA5eztbm-91" value="&lt;b&gt;Battery Management System&lt;/b&gt;" style="text;html=1;align=center;verticalAlign=middle;resizable=0;points=[];autosize=1;strokeColor=none;fillColor=none;fontSize=11;fontFamily=Helvetica;fontColor=default;" parent="1" vertex="1">
          <mxGeometry x="130" y="-347.5" width="170" height="30" as="geometry" />
        </mxCell>
        <mxCell id="40IYaSdumrcxGA5eztbm-92" value="" style="shape=image;html=1;verticalAlign=top;verticalLabelPosition=bottom;labelBackgroundColor=#ffffff;imageAspect=0;aspect=fixed;image=https://cdn1.iconfinder.com/data/icons/bootstrap-vol-3/16/joystick-128.png;fontFamily=Helvetica;fontSize=11;fontColor=default;" parent="1" vertex="1">
          <mxGeometry x="495" y="-70" width="50" height="50" as="geometry" />
        </mxCell>
        <mxCell id="40IYaSdumrcxGA5eztbm-93" value="Joystick" style="text;html=1;align=center;verticalAlign=middle;resizable=0;points=[];autosize=1;strokeColor=none;fillColor=none;fontSize=11;fontFamily=Helvetica;fontColor=default;" parent="1" vertex="1">
          <mxGeometry x="460" y="-70" width="60" height="30" as="geometry" />
        </mxCell>
        <mxCell id="40IYaSdumrcxGA5eztbm-95" value="" style="endArrow=none;html=1;rounded=0;labelBackgroundColor=default;strokeColor=default;fontFamily=Helvetica;fontSize=11;fontColor=default;shape=connector;entryX=0.533;entryY=1.004;entryDx=0;entryDy=0;entryPerimeter=0;" parent="1" edge="1">
          <mxGeometry width="50" height="50" relative="1" as="geometry">
            <mxPoint x="520" y="-70" as="sourcePoint" />
            <mxPoint x="519.29" y="-160" as="targetPoint" />
          </mxGeometry>
        </mxCell>
        <mxCell id="40IYaSdumrcxGA5eztbm-97" value="Raspberry Pi 4B" style="whiteSpace=wrap;html=1;fontFamily=Helvetica;fontSize=11;fontColor=default;" parent="1" vertex="1">
          <mxGeometry x="1250" y="-257.5" width="120" height="60" as="geometry" />
        </mxCell>
        <mxCell id="40IYaSdumrcxGA5eztbm-98" value="" style="endArrow=none;html=1;rounded=0;labelBackgroundColor=default;strokeColor=default;fontFamily=Helvetica;fontSize=11;fontColor=default;shape=connector;" parent="1" edge="1">
          <mxGeometry width="50" height="50" relative="1" as="geometry">
            <mxPoint x="1370" y="-227.84000000000003" as="sourcePoint" />
            <mxPoint x="1420" y="-227.84000000000003" as="targetPoint" />
          </mxGeometry>
        </mxCell>
        <mxCell id="40IYaSdumrcxGA5eztbm-101" value="Camera" style="sketch=0;outlineConnect=0;fontColor=#232F3E;gradientColor=none;strokeColor=#232F3E;fillColor=#ffffff;dashed=0;verticalLabelPosition=bottom;verticalAlign=top;align=center;html=1;fontSize=12;fontStyle=0;aspect=fixed;shape=mxgraph.aws4.resourceIcon;resIcon=mxgraph.aws4.camera;fontFamily=Helvetica;" parent="1" vertex="1">
          <mxGeometry x="1420" y="-257.5" width="60" height="60" as="geometry" />
        </mxCell>
        <mxCell id="40IYaSdumrcxGA5eztbm-102" value="5V Power Bank" style="rounded=0;whiteSpace=wrap;html=1;fontFamily=Helvetica;fontSize=11;fontColor=default;" parent="1" vertex="1">
          <mxGeometry x="1070" y="-257.5" width="120" height="60" as="geometry" />
        </mxCell>
        <mxCell id="40IYaSdumrcxGA5eztbm-104" value="" style="endArrow=none;html=1;rounded=0;labelBackgroundColor=default;strokeColor=default;fontFamily=Helvetica;fontSize=11;fontColor=default;shape=connector;" parent="1" edge="1">
          <mxGeometry width="50" height="50" relative="1" as="geometry">
            <mxPoint x="1190" y="-227.84000000000003" as="sourcePoint" />
            <mxPoint x="1250" y="-227.5" as="targetPoint" />
          </mxGeometry>
        </mxCell>
        <mxCell id="40IYaSdumrcxGA5eztbm-107" value="" style="pointerEvents=1;verticalLabelPosition=bottom;shadow=0;dashed=0;align=center;html=1;verticalAlign=top;shape=mxgraph.electrical.signal_sources.signal_ground;fontFamily=Helvetica;fontSize=11;fontColor=default;" parent="1" vertex="1">
          <mxGeometry x="1040" y="-107.5" width="20" height="20" as="geometry" />
        </mxCell>
        <mxCell id="40IYaSdumrcxGA5eztbm-108" value="" style="endArrow=none;html=1;rounded=0;labelBackgroundColor=default;strokeColor=default;fontFamily=Helvetica;fontSize=11;fontColor=default;shape=connector;entryX=0.5;entryY=0;entryDx=0;entryDy=0;entryPerimeter=0;" parent="1" target="40IYaSdumrcxGA5eztbm-107" edge="1">
          <mxGeometry width="50" height="50" relative="1" as="geometry">
            <mxPoint x="1050" y="-227.5" as="sourcePoint" />
            <mxPoint x="1060" y="-157.5" as="targetPoint" />
          </mxGeometry>
        </mxCell>
        <mxCell id="40IYaSdumrcxGA5eztbm-109" value="" style="endArrow=none;html=1;rounded=0;labelBackgroundColor=default;strokeColor=default;fontFamily=Helvetica;fontSize=11;fontColor=default;shape=connector;entryX=0;entryY=0.5;entryDx=0;entryDy=0;" parent="1" target="40IYaSdumrcxGA5eztbm-102" edge="1">
          <mxGeometry width="50" height="50" relative="1" as="geometry">
            <mxPoint x="1050" y="-227.5" as="sourcePoint" />
            <mxPoint x="1100" y="-277.5" as="targetPoint" />
          </mxGeometry>
        </mxCell>
        <mxCell id="40IYaSdumrcxGA5eztbm-111" value="Pi GND" style="text;html=1;align=center;verticalAlign=middle;resizable=0;points=[];autosize=1;strokeColor=none;fillColor=none;fontSize=11;fontFamily=Helvetica;fontColor=default;" parent="1" vertex="1">
          <mxGeometry x="1050" y="-107.5" width="60" height="30" as="geometry" />
        </mxCell>
        <mxCell id="40IYaSdumrcxGA5eztbm-114" value="&lt;b&gt;Vision System&lt;/b&gt;" style="text;html=1;align=center;verticalAlign=middle;resizable=0;points=[];autosize=1;strokeColor=none;fillColor=none;fontSize=11;fontFamily=Helvetica;fontColor=default;" parent="1" vertex="1">
          <mxGeometry x="1020" y="-317.5" width="100" height="30" as="geometry" />
        </mxCell>
        <mxCell id="V1TDWvUSBA27oYakJqR9-2" value="Raspberry Pi 4B" style="whiteSpace=wrap;html=1;fontFamily=Helvetica;fontSize=11;fontColor=default;" vertex="1" parent="1">
          <mxGeometry x="320" y="680" width="120" height="60" as="geometry" />
        </mxCell>
        <mxCell id="V1TDWvUSBA27oYakJqR9-3" value="" style="endArrow=none;html=1;rounded=0;labelBackgroundColor=default;strokeColor=default;fontFamily=Helvetica;fontSize=11;fontColor=default;shape=connector;" edge="1" parent="1">
          <mxGeometry width="50" height="50" relative="1" as="geometry">
            <mxPoint x="440" y="709.66" as="sourcePoint" />
            <mxPoint x="490" y="709.66" as="targetPoint" />
          </mxGeometry>
        </mxCell>
        <mxCell id="V1TDWvUSBA27oYakJqR9-4" value="Camera" style="sketch=0;outlineConnect=0;fontColor=#232F3E;gradientColor=none;strokeColor=#232F3E;fillColor=#ffffff;dashed=0;verticalLabelPosition=bottom;verticalAlign=top;align=center;html=1;fontSize=12;fontStyle=0;aspect=fixed;shape=mxgraph.aws4.resourceIcon;resIcon=mxgraph.aws4.camera;fontFamily=Helvetica;" vertex="1" parent="1">
          <mxGeometry x="490" y="680" width="60" height="60" as="geometry" />
        </mxCell>
        <mxCell id="V1TDWvUSBA27oYakJqR9-5" value="5V Power Bank" style="rounded=0;whiteSpace=wrap;html=1;fontFamily=Helvetica;fontSize=11;fontColor=default;" vertex="1" parent="1">
          <mxGeometry x="140" y="680" width="120" height="60" as="geometry" />
        </mxCell>
        <mxCell id="V1TDWvUSBA27oYakJqR9-6" value="" style="endArrow=none;html=1;rounded=0;labelBackgroundColor=default;strokeColor=default;fontFamily=Helvetica;fontSize=11;fontColor=default;shape=connector;" edge="1" parent="1">
          <mxGeometry width="50" height="50" relative="1" as="geometry">
            <mxPoint x="260" y="709.66" as="sourcePoint" />
            <mxPoint x="320" y="710" as="targetPoint" />
          </mxGeometry>
        </mxCell>
        <mxCell id="V1TDWvUSBA27oYakJqR9-7" value="" style="pointerEvents=1;verticalLabelPosition=bottom;shadow=0;dashed=0;align=center;html=1;verticalAlign=top;shape=mxgraph.electrical.signal_sources.signal_ground;fontFamily=Helvetica;fontSize=11;fontColor=default;" vertex="1" parent="1">
          <mxGeometry x="110" y="830" width="20" height="20" as="geometry" />
        </mxCell>
        <mxCell id="V1TDWvUSBA27oYakJqR9-8" value="" style="endArrow=none;html=1;rounded=0;labelBackgroundColor=default;strokeColor=default;fontFamily=Helvetica;fontSize=11;fontColor=default;shape=connector;entryX=0.5;entryY=0;entryDx=0;entryDy=0;entryPerimeter=0;" edge="1" parent="1" target="V1TDWvUSBA27oYakJqR9-7">
          <mxGeometry width="50" height="50" relative="1" as="geometry">
            <mxPoint x="120" y="710" as="sourcePoint" />
            <mxPoint x="130" y="780" as="targetPoint" />
          </mxGeometry>
        </mxCell>
        <mxCell id="V1TDWvUSBA27oYakJqR9-9" value="" style="endArrow=none;html=1;rounded=0;labelBackgroundColor=default;strokeColor=default;fontFamily=Helvetica;fontSize=11;fontColor=default;shape=connector;entryX=0;entryY=0.5;entryDx=0;entryDy=0;" edge="1" parent="1" target="V1TDWvUSBA27oYakJqR9-5">
          <mxGeometry width="50" height="50" relative="1" as="geometry">
            <mxPoint x="120" y="710" as="sourcePoint" />
            <mxPoint x="170" y="660" as="targetPoint" />
          </mxGeometry>
        </mxCell>
        <mxCell id="V1TDWvUSBA27oYakJqR9-10" value="Pi GND" style="text;html=1;align=center;verticalAlign=middle;resizable=0;points=[];autosize=1;strokeColor=none;fillColor=none;fontSize=11;fontFamily=Helvetica;fontColor=default;" vertex="1" parent="1">
          <mxGeometry x="120" y="830" width="60" height="30" as="geometry" />
        </mxCell>
        <mxCell id="V1TDWvUSBA27oYakJqR9-11" value="&lt;b&gt;Vision System&lt;/b&gt;" style="text;html=1;align=center;verticalAlign=middle;resizable=0;points=[];autosize=1;strokeColor=none;fillColor=none;fontSize=11;fontFamily=Helvetica;fontColor=default;" vertex="1" parent="1">
          <mxGeometry x="40" y="590" width="100" height="30" as="geometry" />
        </mxCell>
        <mxCell id="V1TDWvUSBA27oYakJqR9-12" value="" style="shape=cylinder3;whiteSpace=wrap;html=1;boundedLbl=1;backgroundOutline=1;size=15;" vertex="1" parent="1">
          <mxGeometry x="50" y="410" width="40" height="110" as="geometry" />
        </mxCell>
        <mxCell id="V1TDWvUSBA27oYakJqR9-17" value="" style="endArrow=none;html=1;rounded=0;entryX=0.985;entryY=0.157;entryDx=0;entryDy=0;entryPerimeter=0;" edge="1" parent="1" target="V1TDWvUSBA27oYakJqR9-12">
          <mxGeometry width="50" height="50" relative="1" as="geometry">
            <mxPoint x="50" y="420.64" as="sourcePoint" />
            <mxPoint x="90.80000000000001" y="419.9999999999999" as="targetPoint" />
          </mxGeometry>
        </mxCell>
        <mxCell id="V1TDWvUSBA27oYakJqR9-18" value="3&quot;" style="edgeLabel;html=1;align=center;verticalAlign=middle;resizable=0;points=[];" vertex="1" connectable="0" parent="V1TDWvUSBA27oYakJqR9-17">
          <mxGeometry x="-0.0606" y="-1" relative="1" as="geometry">
            <mxPoint as="offset" />
          </mxGeometry>
        </mxCell>
        <mxCell id="V1TDWvUSBA27oYakJqR9-19" value="" style="endArrow=classic;html=1;rounded=0;entryX=0.5;entryY=1;entryDx=0;entryDy=0;entryPerimeter=0;" edge="1" parent="1" target="V1TDWvUSBA27oYakJqR9-12">
          <mxGeometry width="50" height="50" relative="1" as="geometry">
            <mxPoint x="70" y="580" as="sourcePoint" />
            <mxPoint x="120" y="500" as="targetPoint" />
          </mxGeometry>
        </mxCell>
        <mxCell id="V1TDWvUSBA27oYakJqR9-20" value="&lt;b&gt;Vision Enclosure (new)&lt;br&gt;&lt;/b&gt;- Fisheye cylinder&lt;br&gt;- 3&quot; diameter" style="text;html=1;align=center;verticalAlign=middle;resizable=0;points=[];autosize=1;strokeColor=none;fillColor=none;" vertex="1" parent="1">
          <mxGeometry x="80" y="400" width="160" height="60" as="geometry" />
        </mxCell>
        <mxCell id="V1TDWvUSBA27oYakJqR9-21" value="Absolute Orientation Sensor IMU" style="rounded=0;whiteSpace=wrap;html=1;" vertex="1" parent="1">
          <mxGeometry x="300" y="590" width="160" height="50" as="geometry" />
        </mxCell>
        <mxCell id="V1TDWvUSBA27oYakJqR9-22" value="" style="endArrow=none;html=1;rounded=0;entryX=0.5;entryY=1;entryDx=0;entryDy=0;exitX=0.501;exitY=-0.008;exitDx=0;exitDy=0;exitPerimeter=0;" edge="1" parent="1" source="V1TDWvUSBA27oYakJqR9-2" target="V1TDWvUSBA27oYakJqR9-21">
          <mxGeometry width="50" height="50" relative="1" as="geometry">
            <mxPoint x="370" y="680" as="sourcePoint" />
            <mxPoint x="420" y="630" as="targetPoint" />
          </mxGeometry>
        </mxCell>
        <mxCell id="V1TDWvUSBA27oYakJqR9-23" value="LCD" style="rounded=0;whiteSpace=wrap;html=1;" vertex="1" parent="1">
          <mxGeometry x="1270" y="-180" width="80" height="50" as="geometry" />
        </mxCell>
        <mxCell id="V1TDWvUSBA27oYakJqR9-24" value="" style="endArrow=none;html=1;rounded=0;entryX=0.5;entryY=1;entryDx=0;entryDy=0;exitX=0.5;exitY=0;exitDx=0;exitDy=0;" edge="1" parent="1" source="V1TDWvUSBA27oYakJqR9-23" target="40IYaSdumrcxGA5eztbm-97">
          <mxGeometry width="50" height="50" relative="1" as="geometry">
            <mxPoint x="1330" y="-180" as="sourcePoint" />
            <mxPoint x="1380" y="-230" as="targetPoint" />
          </mxGeometry>
        </mxCell>
        <mxCell id="V1TDWvUSBA27oYakJqR9-25" value="LCD" style="rounded=0;whiteSpace=wrap;html=1;" vertex="1" parent="1">
          <mxGeometry x="320" y="780" width="120" height="60" as="geometry" />
        </mxCell>
        <mxCell id="V1TDWvUSBA27oYakJqR9-26" value="" style="endArrow=none;html=1;rounded=0;entryX=0.5;entryY=1;entryDx=0;entryDy=0;" edge="1" parent="1" target="V1TDWvUSBA27oYakJqR9-2">
          <mxGeometry width="50" height="50" relative="1" as="geometry">
            <mxPoint x="380" y="780" as="sourcePoint" />
            <mxPoint x="425" y="730" as="targetPoint" />
          </mxGeometry>
        </mxCell>
        <mxCell id="V1TDWvUSBA27oYakJqR9-28" value="&lt;b&gt;Battery Management&lt;/b&gt;" style="rounded=0;whiteSpace=wrap;html=1;" vertex="1" parent="1">
          <mxGeometry x="315" y="415" width="335" height="115" as="geometry" />
        </mxCell>
        <mxCell id="V1TDWvUSBA27oYakJqR9-31" value="" style="rounded=0;whiteSpace=wrap;html=1;fontFamily=Helvetica;fontSize=11;fontColor=default;" vertex="1" parent="1">
          <mxGeometry x="920" y="360" width="370" height="480" as="geometry" />
        </mxCell>
        <mxCell id="V1TDWvUSBA27oYakJqR9-32" value="&lt;b&gt;Electrical Steering PCB&lt;br&gt;(Unified Steering Board!)&lt;/b&gt;" style="whiteSpace=wrap;html=1;aspect=fixed;fontFamily=Helvetica;fontSize=11;fontColor=default;" vertex="1" parent="1">
          <mxGeometry x="750" y="530" width="130" height="130" as="geometry" />
        </mxCell>
        <mxCell id="V1TDWvUSBA27oYakJqR9-33" value="Servo Motor" style="ellipse;whiteSpace=wrap;html=1;aspect=fixed;fontFamily=Helvetica;fontSize=11;fontColor=default;" vertex="1" parent="1">
          <mxGeometry x="1010" y="370" width="80" height="80" as="geometry" />
        </mxCell>
        <mxCell id="V1TDWvUSBA27oYakJqR9-34" value="Servo Motor" style="ellipse;whiteSpace=wrap;html=1;aspect=fixed;fontFamily=Helvetica;fontSize=11;fontColor=default;" vertex="1" parent="1">
          <mxGeometry x="1010" y="490" width="80" height="80" as="geometry" />
        </mxCell>
        <mxCell id="V1TDWvUSBA27oYakJqR9-35" value="Servo Motor" style="ellipse;whiteSpace=wrap;html=1;aspect=fixed;fontFamily=Helvetica;fontSize=11;fontColor=default;" vertex="1" parent="1">
          <mxGeometry x="1010" y="610" width="80" height="80" as="geometry" />
        </mxCell>
        <mxCell id="V1TDWvUSBA27oYakJqR9-36" value="Servo Motor" style="ellipse;whiteSpace=wrap;html=1;aspect=fixed;fontFamily=Helvetica;fontSize=11;fontColor=default;" vertex="1" parent="1">
          <mxGeometry x="1010" y="730" width="80" height="80" as="geometry" />
        </mxCell>
        <mxCell id="V1TDWvUSBA27oYakJqR9-37" value="" style="endArrow=none;html=1;rounded=0;labelBackgroundColor=default;strokeColor=default;fontFamily=Helvetica;fontSize=11;fontColor=default;shape=connector;" edge="1" parent="1">
          <mxGeometry width="50" height="50" relative="1" as="geometry">
            <mxPoint x="880" y="590" as="sourcePoint" />
            <mxPoint x="940" y="590" as="targetPoint" />
          </mxGeometry>
        </mxCell>
        <mxCell id="V1TDWvUSBA27oYakJqR9-38" value="" style="endArrow=none;html=1;rounded=0;labelBackgroundColor=default;strokeColor=default;fontFamily=Helvetica;fontSize=11;fontColor=default;shape=connector;" edge="1" parent="1">
          <mxGeometry width="50" height="50" relative="1" as="geometry">
            <mxPoint x="940" y="590" as="sourcePoint" />
            <mxPoint x="940" y="410" as="targetPoint" />
          </mxGeometry>
        </mxCell>
        <mxCell id="V1TDWvUSBA27oYakJqR9-39" value="" style="endArrow=none;html=1;rounded=0;labelBackgroundColor=default;strokeColor=default;fontFamily=Helvetica;fontSize=11;fontColor=default;shape=connector;" edge="1" parent="1">
          <mxGeometry width="50" height="50" relative="1" as="geometry">
            <mxPoint x="940" y="770" as="sourcePoint" />
            <mxPoint x="940" y="590" as="targetPoint" />
          </mxGeometry>
        </mxCell>
        <mxCell id="V1TDWvUSBA27oYakJqR9-40" value="" style="endArrow=none;html=1;rounded=0;labelBackgroundColor=default;strokeColor=default;fontFamily=Helvetica;fontSize=11;fontColor=default;shape=connector;" edge="1" parent="1" target="V1TDWvUSBA27oYakJqR9-36">
          <mxGeometry width="50" height="50" relative="1" as="geometry">
            <mxPoint x="940" y="770" as="sourcePoint" />
            <mxPoint x="990" y="720" as="targetPoint" />
          </mxGeometry>
        </mxCell>
        <mxCell id="V1TDWvUSBA27oYakJqR9-41" value="&lt;font style=&quot;font-size: 9px;&quot;&gt;PWM Signal&lt;/font&gt;" style="edgeLabel;html=1;align=center;verticalAlign=middle;resizable=0;points=[];fontSize=11;fontFamily=Helvetica;fontColor=default;" vertex="1" connectable="0" parent="V1TDWvUSBA27oYakJqR9-40">
          <mxGeometry x="-0.0055" relative="1" as="geometry">
            <mxPoint as="offset" />
          </mxGeometry>
        </mxCell>
        <mxCell id="V1TDWvUSBA27oYakJqR9-42" value="" style="endArrow=none;html=1;rounded=0;labelBackgroundColor=default;strokeColor=default;fontFamily=Helvetica;fontSize=11;fontColor=default;shape=connector;" edge="1" parent="1">
          <mxGeometry width="50" height="50" relative="1" as="geometry">
            <mxPoint x="940" y="649.88" as="sourcePoint" />
            <mxPoint x="1010" y="649.88" as="targetPoint" />
          </mxGeometry>
        </mxCell>
        <mxCell id="V1TDWvUSBA27oYakJqR9-43" value="&lt;font style=&quot;font-size: 9px;&quot;&gt;PWM Signal&lt;/font&gt;" style="edgeLabel;html=1;align=center;verticalAlign=middle;resizable=0;points=[];fontSize=11;fontFamily=Helvetica;fontColor=default;" vertex="1" connectable="0" parent="V1TDWvUSBA27oYakJqR9-42">
          <mxGeometry x="-0.1374" y="1" relative="1" as="geometry">
            <mxPoint x="10" y="1" as="offset" />
          </mxGeometry>
        </mxCell>
        <mxCell id="V1TDWvUSBA27oYakJqR9-44" value="" style="endArrow=none;html=1;rounded=0;labelBackgroundColor=default;strokeColor=default;fontFamily=Helvetica;fontSize=11;fontColor=default;shape=connector;" edge="1" parent="1">
          <mxGeometry width="50" height="50" relative="1" as="geometry">
            <mxPoint x="940" y="530" as="sourcePoint" />
            <mxPoint x="1010" y="530" as="targetPoint" />
          </mxGeometry>
        </mxCell>
        <mxCell id="V1TDWvUSBA27oYakJqR9-45" value="&lt;font style=&quot;font-size: 9px;&quot;&gt;PWM Signal&lt;/font&gt;" style="edgeLabel;html=1;align=center;verticalAlign=middle;resizable=0;points=[];fontSize=11;fontFamily=Helvetica;fontColor=default;" vertex="1" connectable="0" parent="V1TDWvUSBA27oYakJqR9-44">
          <mxGeometry x="0.024" relative="1" as="geometry">
            <mxPoint as="offset" />
          </mxGeometry>
        </mxCell>
        <mxCell id="V1TDWvUSBA27oYakJqR9-46" value="" style="endArrow=none;html=1;rounded=0;labelBackgroundColor=default;strokeColor=default;fontFamily=Helvetica;fontSize=11;fontColor=default;shape=connector;" edge="1" parent="1">
          <mxGeometry width="50" height="50" relative="1" as="geometry">
            <mxPoint x="940" y="409.88" as="sourcePoint" />
            <mxPoint x="1010" y="409.88" as="targetPoint" />
          </mxGeometry>
        </mxCell>
        <mxCell id="V1TDWvUSBA27oYakJqR9-47" value="&lt;font style=&quot;font-size: 9px;&quot;&gt;PWM Signal&lt;/font&gt;" style="edgeLabel;html=1;align=center;verticalAlign=middle;resizable=0;points=[];fontSize=11;fontFamily=Helvetica;fontColor=default;" vertex="1" connectable="0" parent="V1TDWvUSBA27oYakJqR9-46">
          <mxGeometry x="-0.2486" y="1" relative="1" as="geometry">
            <mxPoint x="14" y="1" as="offset" />
          </mxGeometry>
        </mxCell>
        <mxCell id="V1TDWvUSBA27oYakJqR9-48" value="" style="endArrow=none;html=1;rounded=0;labelBackgroundColor=default;strokeColor=default;fontFamily=Helvetica;fontSize=11;fontColor=default;shape=connector;" edge="1" parent="1">
          <mxGeometry width="50" height="50" relative="1" as="geometry">
            <mxPoint x="1090" y="410" as="sourcePoint" />
            <mxPoint x="1180" y="410" as="targetPoint" />
          </mxGeometry>
        </mxCell>
        <mxCell id="V1TDWvUSBA27oYakJqR9-49" value="" style="endArrow=none;html=1;rounded=0;labelBackgroundColor=default;strokeColor=default;fontFamily=Helvetica;fontSize=11;fontColor=default;shape=connector;" edge="1" parent="1">
          <mxGeometry width="50" height="50" relative="1" as="geometry">
            <mxPoint x="1090" y="529.5799999999999" as="sourcePoint" />
            <mxPoint x="1180" y="529.5799999999999" as="targetPoint" />
          </mxGeometry>
        </mxCell>
        <mxCell id="V1TDWvUSBA27oYakJqR9-50" value="" style="endArrow=none;html=1;rounded=0;labelBackgroundColor=default;strokeColor=default;fontFamily=Helvetica;fontSize=11;fontColor=default;shape=connector;" edge="1" parent="1">
          <mxGeometry width="50" height="50" relative="1" as="geometry">
            <mxPoint x="1090" y="649.79" as="sourcePoint" />
            <mxPoint x="1180" y="649.79" as="targetPoint" />
          </mxGeometry>
        </mxCell>
        <mxCell id="V1TDWvUSBA27oYakJqR9-51" value="" style="endArrow=none;html=1;rounded=0;labelBackgroundColor=default;strokeColor=default;fontFamily=Helvetica;fontSize=11;fontColor=default;shape=connector;" edge="1" parent="1">
          <mxGeometry width="50" height="50" relative="1" as="geometry">
            <mxPoint x="1090" y="769.79" as="sourcePoint" />
            <mxPoint x="1180" y="769.79" as="targetPoint" />
          </mxGeometry>
        </mxCell>
        <mxCell id="V1TDWvUSBA27oYakJqR9-52" value="" style="endArrow=none;html=1;rounded=0;labelBackgroundColor=default;strokeColor=default;fontFamily=Helvetica;fontSize=11;fontColor=default;shape=connector;exitX=0.5;exitY=0;exitDx=0;exitDy=0;exitPerimeter=0;" edge="1" parent="1" source="V1TDWvUSBA27oYakJqR9-53">
          <mxGeometry width="50" height="50" relative="1" as="geometry">
            <mxPoint x="1180" y="800" as="sourcePoint" />
            <mxPoint x="1180" y="410" as="targetPoint" />
          </mxGeometry>
        </mxCell>
        <mxCell id="V1TDWvUSBA27oYakJqR9-53" value="" style="pointerEvents=1;verticalLabelPosition=bottom;shadow=0;dashed=0;align=center;html=1;verticalAlign=top;shape=mxgraph.electrical.signal_sources.signal_ground;fontFamily=Helvetica;fontSize=11;fontColor=default;" vertex="1" parent="1">
          <mxGeometry x="1170" y="850" width="20" height="20" as="geometry" />
        </mxCell>
        <mxCell id="V1TDWvUSBA27oYakJqR9-54" value="" style="endArrow=none;html=1;rounded=0;labelBackgroundColor=default;strokeColor=default;fontFamily=Helvetica;fontSize=11;fontColor=default;shape=connector;" edge="1" parent="1">
          <mxGeometry width="50" height="50" relative="1" as="geometry">
            <mxPoint x="820" y="530" as="sourcePoint" />
            <mxPoint x="820" y="350" as="targetPoint" />
          </mxGeometry>
        </mxCell>
        <mxCell id="V1TDWvUSBA27oYakJqR9-55" value="" style="endArrow=none;html=1;rounded=0;labelBackgroundColor=default;strokeColor=default;fontFamily=Helvetica;fontSize=11;fontColor=default;shape=connector;" edge="1" parent="1">
          <mxGeometry width="50" height="50" relative="1" as="geometry">
            <mxPoint x="820" y="350" as="sourcePoint" />
            <mxPoint x="1050" y="350" as="targetPoint" />
          </mxGeometry>
        </mxCell>
        <mxCell id="V1TDWvUSBA27oYakJqR9-56" value="" style="endArrow=none;html=1;rounded=0;labelBackgroundColor=default;strokeColor=default;fontFamily=Helvetica;fontSize=11;fontColor=default;shape=connector;exitX=0.352;exitY=0;exitDx=0;exitDy=0;exitPerimeter=0;" edge="1" parent="1" source="V1TDWvUSBA27oYakJqR9-31">
          <mxGeometry width="50" height="50" relative="1" as="geometry">
            <mxPoint x="1049.75" y="360" as="sourcePoint" />
            <mxPoint x="1050.25" y="349.52" as="targetPoint" />
          </mxGeometry>
        </mxCell>
        <mxCell id="V1TDWvUSBA27oYakJqR9-57" value="7.4 V" style="text;html=1;align=center;verticalAlign=middle;resizable=0;points=[];autosize=1;strokeColor=none;fillColor=none;fontSize=11;fontFamily=Helvetica;fontColor=default;" vertex="1" parent="1">
          <mxGeometry x="905" y="330" width="50" height="30" as="geometry" />
        </mxCell>
        <mxCell id="V1TDWvUSBA27oYakJqR9-58" value="Steering" style="text;html=1;align=center;verticalAlign=middle;resizable=0;points=[];autosize=1;strokeColor=none;fillColor=none;fontSize=11;fontFamily=Helvetica;fontColor=default;fontStyle=1" vertex="1" parent="1">
          <mxGeometry x="1225" y="360" width="70" height="30" as="geometry" />
        </mxCell>
        <mxCell id="V1TDWvUSBA27oYakJqR9-59" value="" style="shape=image;html=1;verticalAlign=top;verticalLabelPosition=bottom;labelBackgroundColor=#ffffff;imageAspect=0;aspect=fixed;image=https://cdn1.iconfinder.com/data/icons/bootstrap-vol-3/16/joystick-128.png;fontFamily=Helvetica;fontSize=11;fontColor=default;" vertex="1" parent="1">
          <mxGeometry x="795" y="750" width="50" height="50" as="geometry" />
        </mxCell>
        <mxCell id="V1TDWvUSBA27oYakJqR9-60" value="Joystick" style="text;html=1;align=center;verticalAlign=middle;resizable=0;points=[];autosize=1;strokeColor=none;fillColor=none;fontSize=11;fontFamily=Helvetica;fontColor=default;" vertex="1" parent="1">
          <mxGeometry x="760" y="750" width="60" height="30" as="geometry" />
        </mxCell>
        <mxCell id="V1TDWvUSBA27oYakJqR9-61" value="" style="endArrow=none;html=1;rounded=0;labelBackgroundColor=default;strokeColor=default;fontFamily=Helvetica;fontSize=11;fontColor=default;shape=connector;entryX=0.533;entryY=1.004;entryDx=0;entryDy=0;entryPerimeter=0;" edge="1" parent="1">
          <mxGeometry width="50" height="50" relative="1" as="geometry">
            <mxPoint x="820" y="750" as="sourcePoint" />
            <mxPoint x="819.29" y="660" as="targetPoint" />
          </mxGeometry>
        </mxCell>
        <mxCell id="V1TDWvUSBA27oYakJqR9-62" value="" style="endArrow=none;html=1;rounded=0;" edge="1" parent="1">
          <mxGeometry width="50" height="50" relative="1" as="geometry">
            <mxPoint x="650" y="490" as="sourcePoint" />
            <mxPoint x="780" y="490" as="targetPoint" />
          </mxGeometry>
        </mxCell>
        <mxCell id="V1TDWvUSBA27oYakJqR9-70" value="I2C, UART?" style="edgeLabel;html=1;align=center;verticalAlign=middle;resizable=0;points=[];" vertex="1" connectable="0" parent="V1TDWvUSBA27oYakJqR9-62">
          <mxGeometry x="0.0898" y="1" relative="1" as="geometry">
            <mxPoint as="offset" />
          </mxGeometry>
        </mxCell>
        <mxCell id="V1TDWvUSBA27oYakJqR9-63" value="" style="endArrow=none;html=1;rounded=0;" edge="1" parent="1">
          <mxGeometry width="50" height="50" relative="1" as="geometry">
            <mxPoint x="780" y="530" as="sourcePoint" />
            <mxPoint x="780" y="490" as="targetPoint" />
          </mxGeometry>
        </mxCell>
        <mxCell id="V1TDWvUSBA27oYakJqR9-65" value="" style="endArrow=none;html=1;rounded=0;exitX=1.001;exitY=0.214;exitDx=0;exitDy=0;exitPerimeter=0;" edge="1" parent="1" source="V1TDWvUSBA27oYakJqR9-27">
          <mxGeometry width="50" height="50" relative="1" as="geometry">
            <mxPoint x="649.9999999999998" y="640.0007042253521" as="sourcePoint" />
            <mxPoint x="750" y="640" as="targetPoint" />
          </mxGeometry>
        </mxCell>
        <mxCell id="V1TDWvUSBA27oYakJqR9-66" value="" style="whiteSpace=wrap;html=1;shape=mxgraph.basic.cloud_callout" vertex="1" parent="1">
          <mxGeometry x="390" y="300" width="260" height="110" as="geometry" />
        </mxCell>
        <mxCell id="V1TDWvUSBA27oYakJqR9-67" value="&lt;font style=&quot;font-size: 9px;&quot;&gt;- Spec out and integrate off the shelf BMS&lt;br style=&quot;border-color: var(--border-color);&quot;&gt;&lt;span style=&quot;&quot;&gt;- Developing an electronic load for testing&lt;/span&gt;&lt;/font&gt;" style="text;html=1;align=center;verticalAlign=middle;resizable=0;points=[];autosize=1;strokeColor=none;fillColor=none;" vertex="1" parent="1">
          <mxGeometry x="425" y="320" width="190" height="40" as="geometry" />
        </mxCell>
        <mxCell id="V1TDWvUSBA27oYakJqR9-68" value="" style="whiteSpace=wrap;html=1;shape=mxgraph.basic.cloud_callout;direction=west;" vertex="1" parent="1">
          <mxGeometry x="90" y="870" width="440" height="250" as="geometry" />
        </mxCell>
        <mxCell id="V1TDWvUSBA27oYakJqR9-69" value="&lt;br&gt;- Spec out new LCD that will fit in 3&quot; enclosure&lt;br&gt;- Spec out more robust camera&lt;br&gt;- Integrate new LCD and camera display&lt;br&gt;- Integrate and display IMU data on LCD&lt;br&gt;- Machine Vision for automated steering (communicate with ELEC steering)" style="text;html=1;align=center;verticalAlign=middle;resizable=0;points=[];autosize=1;strokeColor=none;fillColor=none;" vertex="1" parent="1">
          <mxGeometry x="100" y="945" width="420" height="100" as="geometry" />
        </mxCell>
        <mxCell id="V1TDWvUSBA27oYakJqR9-72" value="I2C, UART?" style="text;html=1;align=center;verticalAlign=middle;resizable=0;points=[];autosize=1;strokeColor=none;fillColor=none;" vertex="1" parent="1">
          <mxGeometry x="660" y="620" width="90" height="30" as="geometry" />
        </mxCell>
      </root>
    </mxGraphModel>
  </diagram>
</mxfile>
